# xmcd
#
# Track frame offsets:
#	150
#	10725
#	20100
#	30525
#	40800
#	51750
#	59250
#	67500
#	77625
#	90600
#	104255
#	113105
#
# Disc length: 1629 seconds
#
# Revision: 0
# Processed by: cddbd v1.4PL0 Copyright (c) Steve Scherf et al.
# Submitted via: dBpowerAMP V4.0
#
DISCID=89065b0c
DTITLE=Fats Domino - Timeless Treasures
DYEAR=1900
DGENRE=R&B
TTITLE0=Blueberry Hill
TTITLE1=I'm in Love Again
TTITLE2=Ain't That a Shame
TTITLE3=I'm Walkin'
TTITLE4=Blue Monday
TTITLE5=Whole Lotta Loving
TTITLE6=I Want to Walk You Home
TTITLE7=My Blue Heaven
TTITLE8=Jambalaya
TTITLE9=When the Saints Go Marching in
TTITLE10=I'm Ready
TTITLE11=Walking to New Orleans
EXTD=
EXTT0=
EXTT1=
EXTT2=
EXTT3=
EXTT4=
EXTT5=
EXTT6=
EXTT7=
EXTT8=
EXTT9=
EXTT10=
EXTT11=
PLAYORDER=
